<mxfile host="app.diagrams.net" modified="2024-03-14T20:34:15.849Z" agent="Mozilla/5.0 (X11; Linux x86_64; rv:123.0) Gecko/20100101 Firefox/123.0" etag="zmyUy_zK7d2Tze4PQyyi" version="24.0.6" type="github" pages="2">
  <diagram name="Page-1" id="eXVRxQuAAPhyW9Y717Ft">
    <mxGraphModel dx="1434" dy="750" grid="1" gridSize="10" guides="1" tooltips="1" connect="1" arrows="1" fold="1" page="1" pageScale="1" pageWidth="850" pageHeight="1100" math="0" shadow="0">
      <root>
        <mxCell id="0" />
        <mxCell id="1" parent="0" />
        <mxCell id="ip6Ilz5B9sVK5Pmar6q--1" value="" style="endArrow=classic;html=1;rounded=0;" parent="1" edge="1">
          <mxGeometry width="50" height="50" relative="1" as="geometry">
            <mxPoint x="440" y="310" as="sourcePoint" />
            <mxPoint x="440" y="390" as="targetPoint" />
          </mxGeometry>
        </mxCell>
        <mxCell id="ip6Ilz5B9sVK5Pmar6q--2" value="" style="endArrow=none;html=1;rounded=0;" parent="1" edge="1">
          <mxGeometry width="50" height="50" relative="1" as="geometry">
            <mxPoint x="400" y="400" as="sourcePoint" />
            <mxPoint x="480" y="400" as="targetPoint" />
          </mxGeometry>
        </mxCell>
        <mxCell id="ip6Ilz5B9sVK5Pmar6q--3" value="" style="endArrow=none;html=1;rounded=0;" parent="1" edge="1">
          <mxGeometry width="50" height="50" relative="1" as="geometry">
            <mxPoint x="410" y="410" as="sourcePoint" />
            <mxPoint x="470" y="410" as="targetPoint" />
          </mxGeometry>
        </mxCell>
        <mxCell id="ip6Ilz5B9sVK5Pmar6q--4" value="" style="rounded=0;whiteSpace=wrap;html=1;" parent="1" vertex="1">
          <mxGeometry x="380" y="240" width="120" height="60" as="geometry" />
        </mxCell>
        <mxCell id="ip6Ilz5B9sVK5Pmar6q--5" value="&lt;div style=&quot;font-size: 13px;&quot;&gt;&lt;font style=&quot;font-size: 18px;&quot;&gt;TOPO&lt;/font&gt;&lt;/div&gt;" style="text;html=1;align=center;verticalAlign=middle;whiteSpace=wrap;rounded=0;" parent="1" vertex="1">
          <mxGeometry x="380" y="240" width="120" height="60" as="geometry" />
        </mxCell>
        <mxCell id="ip6Ilz5B9sVK5Pmar6q--7" value="" style="endArrow=none;dashed=1;html=1;rounded=0;" parent="1" edge="1">
          <mxGeometry width="50" height="50" relative="1" as="geometry">
            <mxPoint x="420" y="420" as="sourcePoint" />
            <mxPoint x="460" y="420" as="targetPoint" />
          </mxGeometry>
        </mxCell>
        <mxCell id="ip6Ilz5B9sVK5Pmar6q--8" value="" style="rounded=0;whiteSpace=wrap;html=1;" parent="1" vertex="1">
          <mxGeometry x="50" y="70" width="120" height="60" as="geometry" />
        </mxCell>
        <mxCell id="ip6Ilz5B9sVK5Pmar6q--9" value="&lt;font style=&quot;font-size: 19px;&quot;&gt;Etapa 0&lt;/font&gt;" style="text;html=1;align=center;verticalAlign=middle;whiteSpace=wrap;rounded=0;" parent="1" vertex="1">
          <mxGeometry x="50" y="70" width="120" height="60" as="geometry" />
        </mxCell>
        <mxCell id="jlffG_SeRJ56lXRqPt9A-1" value="" style="rounded=0;whiteSpace=wrap;html=1;" parent="1" vertex="1">
          <mxGeometry x="40" y="520" width="120" height="60" as="geometry" />
        </mxCell>
        <mxCell id="jlffG_SeRJ56lXRqPt9A-2" value="&lt;font style=&quot;font-size: 20px;&quot;&gt;Etapa 1&lt;/font&gt;" style="text;html=1;align=center;verticalAlign=middle;whiteSpace=wrap;rounded=0;" parent="1" vertex="1">
          <mxGeometry x="40" y="520" width="120" height="60" as="geometry" />
        </mxCell>
        <mxCell id="jlffG_SeRJ56lXRqPt9A-3" value="" style="endArrow=classic;html=1;rounded=0;" parent="1" edge="1">
          <mxGeometry width="50" height="50" relative="1" as="geometry">
            <mxPoint x="70" y="710" as="sourcePoint" />
            <mxPoint x="70" y="790" as="targetPoint" />
          </mxGeometry>
        </mxCell>
        <mxCell id="jlffG_SeRJ56lXRqPt9A-4" value="" style="endArrow=none;html=1;rounded=0;" parent="1" edge="1">
          <mxGeometry width="50" height="50" relative="1" as="geometry">
            <mxPoint x="30" y="800" as="sourcePoint" />
            <mxPoint x="110" y="800" as="targetPoint" />
          </mxGeometry>
        </mxCell>
        <mxCell id="jlffG_SeRJ56lXRqPt9A-5" value="" style="endArrow=none;html=1;rounded=0;" parent="1" edge="1">
          <mxGeometry width="50" height="50" relative="1" as="geometry">
            <mxPoint x="40" y="810" as="sourcePoint" />
            <mxPoint x="100" y="810" as="targetPoint" />
          </mxGeometry>
        </mxCell>
        <mxCell id="jlffG_SeRJ56lXRqPt9A-6" value="" style="rounded=0;whiteSpace=wrap;html=1;" parent="1" vertex="1">
          <mxGeometry x="10" y="640" width="120" height="60" as="geometry" />
        </mxCell>
        <mxCell id="jlffG_SeRJ56lXRqPt9A-7" value="&lt;div style=&quot;font-size: 13px;&quot;&gt;&lt;font style=&quot;font-size: 18px;&quot;&gt;TOPO&lt;/font&gt;&lt;/div&gt;" style="text;html=1;align=center;verticalAlign=middle;whiteSpace=wrap;rounded=0;" parent="1" vertex="1">
          <mxGeometry x="10" y="640" width="120" height="60" as="geometry" />
        </mxCell>
        <mxCell id="jlffG_SeRJ56lXRqPt9A-8" value="" style="endArrow=none;dashed=1;html=1;rounded=0;" parent="1" edge="1">
          <mxGeometry width="50" height="50" relative="1" as="geometry">
            <mxPoint x="50" y="820" as="sourcePoint" />
            <mxPoint x="90" y="820" as="targetPoint" />
          </mxGeometry>
        </mxCell>
        <mxCell id="jlffG_SeRJ56lXRqPt9A-9" value="" style="endArrow=classic;html=1;rounded=0;" parent="1" edge="1">
          <mxGeometry width="50" height="50" relative="1" as="geometry">
            <mxPoint x="270" y="710" as="sourcePoint" />
            <mxPoint x="270" y="790" as="targetPoint" />
          </mxGeometry>
        </mxCell>
        <mxCell id="jlffG_SeRJ56lXRqPt9A-10" value="" style="endArrow=none;html=1;rounded=0;" parent="1" edge="1">
          <mxGeometry width="50" height="50" relative="1" as="geometry">
            <mxPoint x="230" y="800" as="sourcePoint" />
            <mxPoint x="310" y="800" as="targetPoint" />
          </mxGeometry>
        </mxCell>
        <mxCell id="jlffG_SeRJ56lXRqPt9A-11" value="" style="endArrow=none;html=1;rounded=0;" parent="1" edge="1">
          <mxGeometry width="50" height="50" relative="1" as="geometry">
            <mxPoint x="240" y="810" as="sourcePoint" />
            <mxPoint x="300" y="810" as="targetPoint" />
          </mxGeometry>
        </mxCell>
        <mxCell id="jlffG_SeRJ56lXRqPt9A-12" value="" style="rounded=0;whiteSpace=wrap;html=1;" parent="1" vertex="1">
          <mxGeometry x="210" y="640" width="120" height="60" as="geometry" />
        </mxCell>
        <mxCell id="jlffG_SeRJ56lXRqPt9A-13" value="&lt;div style=&quot;font-size: 20px;&quot;&gt;6&lt;br&gt;&lt;/div&gt;" style="text;html=1;align=center;verticalAlign=middle;whiteSpace=wrap;rounded=0;" parent="1" vertex="1">
          <mxGeometry x="210" y="640" width="120" height="60" as="geometry" />
        </mxCell>
        <mxCell id="jlffG_SeRJ56lXRqPt9A-14" value="" style="endArrow=none;dashed=1;html=1;rounded=0;" parent="1" edge="1">
          <mxGeometry width="50" height="50" relative="1" as="geometry">
            <mxPoint x="250" y="820" as="sourcePoint" />
            <mxPoint x="290" y="820" as="targetPoint" />
          </mxGeometry>
        </mxCell>
        <mxCell id="jlffG_SeRJ56lXRqPt9A-15" value="" style="endArrow=classic;html=1;rounded=0;" parent="1" edge="1">
          <mxGeometry width="50" height="50" relative="1" as="geometry">
            <mxPoint x="570" y="710" as="sourcePoint" />
            <mxPoint x="570" y="790" as="targetPoint" />
          </mxGeometry>
        </mxCell>
        <mxCell id="jlffG_SeRJ56lXRqPt9A-16" value="" style="endArrow=none;html=1;rounded=0;" parent="1" edge="1">
          <mxGeometry width="50" height="50" relative="1" as="geometry">
            <mxPoint x="530" y="800" as="sourcePoint" />
            <mxPoint x="610" y="800" as="targetPoint" />
          </mxGeometry>
        </mxCell>
        <mxCell id="jlffG_SeRJ56lXRqPt9A-17" value="" style="endArrow=none;html=1;rounded=0;" parent="1" edge="1">
          <mxGeometry width="50" height="50" relative="1" as="geometry">
            <mxPoint x="540" y="810" as="sourcePoint" />
            <mxPoint x="600" y="810" as="targetPoint" />
          </mxGeometry>
        </mxCell>
        <mxCell id="jlffG_SeRJ56lXRqPt9A-18" value="" style="rounded=0;whiteSpace=wrap;html=1;" parent="1" vertex="1">
          <mxGeometry x="510" y="640" width="120" height="60" as="geometry" />
        </mxCell>
        <mxCell id="jlffG_SeRJ56lXRqPt9A-19" value="&lt;div style=&quot;font-size: 13px;&quot;&gt;&lt;font style=&quot;font-size: 18px;&quot;&gt;TOPO&lt;/font&gt;&lt;/div&gt;" style="text;html=1;align=center;verticalAlign=middle;whiteSpace=wrap;rounded=0;" parent="1" vertex="1">
          <mxGeometry x="510" y="640" width="120" height="60" as="geometry" />
        </mxCell>
        <mxCell id="jlffG_SeRJ56lXRqPt9A-20" value="" style="endArrow=none;dashed=1;html=1;rounded=0;" parent="1" edge="1">
          <mxGeometry width="50" height="50" relative="1" as="geometry">
            <mxPoint x="550" y="820" as="sourcePoint" />
            <mxPoint x="590" y="820" as="targetPoint" />
          </mxGeometry>
        </mxCell>
        <mxCell id="jlffG_SeRJ56lXRqPt9A-21" value="" style="endArrow=classic;html=1;rounded=0;" parent="1" edge="1">
          <mxGeometry width="50" height="50" relative="1" as="geometry">
            <mxPoint x="770" y="710" as="sourcePoint" />
            <mxPoint x="620" y="781" as="targetPoint" />
          </mxGeometry>
        </mxCell>
        <mxCell id="jlffG_SeRJ56lXRqPt9A-24" value="" style="rounded=0;whiteSpace=wrap;html=1;" parent="1" vertex="1">
          <mxGeometry x="710" y="640" width="120" height="60" as="geometry" />
        </mxCell>
        <mxCell id="jlffG_SeRJ56lXRqPt9A-25" value="&lt;div style=&quot;font-size: 20px;&quot;&gt;6&lt;br&gt;&lt;/div&gt;" style="text;html=1;align=center;verticalAlign=middle;whiteSpace=wrap;rounded=0;" parent="1" vertex="1">
          <mxGeometry x="710" y="640" width="120" height="60" as="geometry" />
        </mxCell>
        <mxCell id="jlffG_SeRJ56lXRqPt9A-27" value="" style="endArrow=classic;html=1;rounded=0;" parent="1" edge="1">
          <mxGeometry width="50" height="50" relative="1" as="geometry">
            <mxPoint x="70" y="1100" as="sourcePoint" />
            <mxPoint x="70" y="1180" as="targetPoint" />
          </mxGeometry>
        </mxCell>
        <mxCell id="jlffG_SeRJ56lXRqPt9A-28" value="" style="endArrow=none;html=1;rounded=0;" parent="1" edge="1">
          <mxGeometry width="50" height="50" relative="1" as="geometry">
            <mxPoint x="30" y="1190" as="sourcePoint" />
            <mxPoint x="110" y="1190" as="targetPoint" />
          </mxGeometry>
        </mxCell>
        <mxCell id="jlffG_SeRJ56lXRqPt9A-29" value="" style="endArrow=none;html=1;rounded=0;" parent="1" edge="1">
          <mxGeometry width="50" height="50" relative="1" as="geometry">
            <mxPoint x="40" y="1200" as="sourcePoint" />
            <mxPoint x="100" y="1200" as="targetPoint" />
          </mxGeometry>
        </mxCell>
        <mxCell id="jlffG_SeRJ56lXRqPt9A-30" value="" style="rounded=0;whiteSpace=wrap;html=1;" parent="1" vertex="1">
          <mxGeometry x="10" y="880" width="120" height="60" as="geometry" />
        </mxCell>
        <mxCell id="jlffG_SeRJ56lXRqPt9A-31" value="&lt;div style=&quot;font-size: 13px;&quot;&gt;&lt;font style=&quot;font-size: 18px;&quot;&gt;TOPO&lt;/font&gt;&lt;/div&gt;" style="text;html=1;align=center;verticalAlign=middle;whiteSpace=wrap;rounded=0;" parent="1" vertex="1">
          <mxGeometry x="10" y="880" width="120" height="60" as="geometry" />
        </mxCell>
        <mxCell id="jlffG_SeRJ56lXRqPt9A-32" value="" style="endArrow=none;dashed=1;html=1;rounded=0;" parent="1" edge="1">
          <mxGeometry width="50" height="50" relative="1" as="geometry">
            <mxPoint x="50" y="1210" as="sourcePoint" />
            <mxPoint x="90" y="1210" as="targetPoint" />
          </mxGeometry>
        </mxCell>
        <mxCell id="jlffG_SeRJ56lXRqPt9A-33" value="" style="endArrow=classic;html=1;rounded=0;" parent="1" edge="1">
          <mxGeometry width="50" height="50" relative="1" as="geometry">
            <mxPoint x="70" y="960" as="sourcePoint" />
            <mxPoint x="70" y="1010" as="targetPoint" />
          </mxGeometry>
        </mxCell>
        <mxCell id="jlffG_SeRJ56lXRqPt9A-34" value="" style="rounded=0;whiteSpace=wrap;html=1;" parent="1" vertex="1">
          <mxGeometry x="10" y="1030" width="120" height="60" as="geometry" />
        </mxCell>
        <mxCell id="jlffG_SeRJ56lXRqPt9A-35" value="&lt;div style=&quot;font-size: 20px;&quot;&gt;6&lt;br&gt;&lt;/div&gt;" style="text;html=1;align=center;verticalAlign=middle;whiteSpace=wrap;rounded=0;" parent="1" vertex="1">
          <mxGeometry x="10" y="1030" width="120" height="60" as="geometry" />
        </mxCell>
        <mxCell id="jlffG_SeRJ56lXRqPt9A-36" value="" style="endArrow=classic;html=1;rounded=0;" parent="1" edge="1">
          <mxGeometry width="50" height="50" relative="1" as="geometry">
            <mxPoint x="270" y="1100" as="sourcePoint" />
            <mxPoint x="270" y="1180" as="targetPoint" />
          </mxGeometry>
        </mxCell>
        <mxCell id="jlffG_SeRJ56lXRqPt9A-37" value="" style="endArrow=none;html=1;rounded=0;" parent="1" edge="1">
          <mxGeometry width="50" height="50" relative="1" as="geometry">
            <mxPoint x="230" y="1190" as="sourcePoint" />
            <mxPoint x="310" y="1190" as="targetPoint" />
          </mxGeometry>
        </mxCell>
        <mxCell id="jlffG_SeRJ56lXRqPt9A-38" value="" style="endArrow=none;html=1;rounded=0;" parent="1" edge="1">
          <mxGeometry width="50" height="50" relative="1" as="geometry">
            <mxPoint x="240" y="1200" as="sourcePoint" />
            <mxPoint x="300" y="1200" as="targetPoint" />
          </mxGeometry>
        </mxCell>
        <mxCell id="jlffG_SeRJ56lXRqPt9A-39" value="" style="endArrow=none;dashed=1;html=1;rounded=0;" parent="1" edge="1">
          <mxGeometry width="50" height="50" relative="1" as="geometry">
            <mxPoint x="250" y="1210" as="sourcePoint" />
            <mxPoint x="290" y="1210" as="targetPoint" />
          </mxGeometry>
        </mxCell>
        <mxCell id="jlffG_SeRJ56lXRqPt9A-40" value="" style="rounded=0;whiteSpace=wrap;html=1;" parent="1" vertex="1">
          <mxGeometry x="210" y="1030" width="120" height="60" as="geometry" />
        </mxCell>
        <mxCell id="jlffG_SeRJ56lXRqPt9A-41" value="&lt;font style=&quot;font-size: 20px;&quot;&gt;8&lt;/font&gt;" style="text;html=1;align=center;verticalAlign=middle;whiteSpace=wrap;rounded=0;" parent="1" vertex="1">
          <mxGeometry x="210" y="1030" width="120" height="60" as="geometry" />
        </mxCell>
        <mxCell id="jlffG_SeRJ56lXRqPt9A-42" value="" style="endArrow=classic;html=1;rounded=0;" parent="1" edge="1">
          <mxGeometry width="50" height="50" relative="1" as="geometry">
            <mxPoint x="580" y="1090" as="sourcePoint" />
            <mxPoint x="580" y="1170" as="targetPoint" />
          </mxGeometry>
        </mxCell>
        <mxCell id="jlffG_SeRJ56lXRqPt9A-43" value="" style="endArrow=none;html=1;rounded=0;" parent="1" edge="1">
          <mxGeometry width="50" height="50" relative="1" as="geometry">
            <mxPoint x="540" y="1180" as="sourcePoint" />
            <mxPoint x="620" y="1180" as="targetPoint" />
          </mxGeometry>
        </mxCell>
        <mxCell id="jlffG_SeRJ56lXRqPt9A-44" value="" style="endArrow=none;html=1;rounded=0;" parent="1" edge="1">
          <mxGeometry width="50" height="50" relative="1" as="geometry">
            <mxPoint x="550" y="1190" as="sourcePoint" />
            <mxPoint x="610" y="1190" as="targetPoint" />
          </mxGeometry>
        </mxCell>
        <mxCell id="jlffG_SeRJ56lXRqPt9A-45" value="" style="rounded=0;whiteSpace=wrap;html=1;" parent="1" vertex="1">
          <mxGeometry x="520" y="870" width="120" height="60" as="geometry" />
        </mxCell>
        <mxCell id="jlffG_SeRJ56lXRqPt9A-46" value="&lt;div style=&quot;font-size: 13px;&quot;&gt;&lt;font style=&quot;font-size: 18px;&quot;&gt;TOPO&lt;/font&gt;&lt;/div&gt;" style="text;html=1;align=center;verticalAlign=middle;whiteSpace=wrap;rounded=0;" parent="1" vertex="1">
          <mxGeometry x="520" y="870" width="120" height="60" as="geometry" />
        </mxCell>
        <mxCell id="jlffG_SeRJ56lXRqPt9A-47" value="" style="endArrow=none;dashed=1;html=1;rounded=0;" parent="1" edge="1">
          <mxGeometry width="50" height="50" relative="1" as="geometry">
            <mxPoint x="560" y="1200" as="sourcePoint" />
            <mxPoint x="600" y="1200" as="targetPoint" />
          </mxGeometry>
        </mxCell>
        <mxCell id="jlffG_SeRJ56lXRqPt9A-48" value="" style="endArrow=classic;html=1;rounded=0;" parent="1" edge="1">
          <mxGeometry width="50" height="50" relative="1" as="geometry">
            <mxPoint x="580" y="950" as="sourcePoint" />
            <mxPoint x="580" y="1000" as="targetPoint" />
          </mxGeometry>
        </mxCell>
        <mxCell id="jlffG_SeRJ56lXRqPt9A-49" value="" style="rounded=0;whiteSpace=wrap;html=1;" parent="1" vertex="1">
          <mxGeometry x="520" y="1020" width="120" height="60" as="geometry" />
        </mxCell>
        <mxCell id="jlffG_SeRJ56lXRqPt9A-50" value="&lt;div style=&quot;font-size: 20px;&quot;&gt;6&lt;br&gt;&lt;/div&gt;" style="text;html=1;align=center;verticalAlign=middle;whiteSpace=wrap;rounded=0;" parent="1" vertex="1">
          <mxGeometry x="520" y="1020" width="120" height="60" as="geometry" />
        </mxCell>
        <mxCell id="jlffG_SeRJ56lXRqPt9A-51" value="" style="endArrow=classic;html=1;rounded=0;" parent="1" edge="1">
          <mxGeometry width="50" height="50" relative="1" as="geometry">
            <mxPoint x="780" y="1090" as="sourcePoint" />
            <mxPoint x="620" y="1160" as="targetPoint" />
          </mxGeometry>
        </mxCell>
        <mxCell id="jlffG_SeRJ56lXRqPt9A-55" value="" style="rounded=0;whiteSpace=wrap;html=1;" parent="1" vertex="1">
          <mxGeometry x="720" y="1020" width="120" height="60" as="geometry" />
        </mxCell>
        <mxCell id="jlffG_SeRJ56lXRqPt9A-56" value="&lt;font style=&quot;font-size: 20px;&quot;&gt;8&lt;/font&gt;" style="text;html=1;align=center;verticalAlign=middle;whiteSpace=wrap;rounded=0;" parent="1" vertex="1">
          <mxGeometry x="720" y="1020" width="120" height="60" as="geometry" />
        </mxCell>
        <mxCell id="jlffG_SeRJ56lXRqPt9A-57" value="" style="endArrow=classic;html=1;rounded=0;" parent="1" edge="1">
          <mxGeometry width="50" height="50" relative="1" as="geometry">
            <mxPoint x="400" y="1650" as="sourcePoint" />
            <mxPoint x="400" y="1730" as="targetPoint" />
          </mxGeometry>
        </mxCell>
        <mxCell id="jlffG_SeRJ56lXRqPt9A-58" value="" style="endArrow=none;html=1;rounded=0;" parent="1" edge="1">
          <mxGeometry width="50" height="50" relative="1" as="geometry">
            <mxPoint x="360" y="1740" as="sourcePoint" />
            <mxPoint x="440" y="1740" as="targetPoint" />
          </mxGeometry>
        </mxCell>
        <mxCell id="jlffG_SeRJ56lXRqPt9A-59" value="" style="endArrow=none;html=1;rounded=0;" parent="1" edge="1">
          <mxGeometry width="50" height="50" relative="1" as="geometry">
            <mxPoint x="370" y="1750" as="sourcePoint" />
            <mxPoint x="430" y="1750" as="targetPoint" />
          </mxGeometry>
        </mxCell>
        <mxCell id="jlffG_SeRJ56lXRqPt9A-60" value="" style="rounded=0;whiteSpace=wrap;html=1;" parent="1" vertex="1">
          <mxGeometry x="340" y="1260" width="120" height="60" as="geometry" />
        </mxCell>
        <mxCell id="jlffG_SeRJ56lXRqPt9A-61" value="&lt;div style=&quot;font-size: 13px;&quot;&gt;&lt;font style=&quot;font-size: 18px;&quot;&gt;TOPO&lt;/font&gt;&lt;/div&gt;" style="text;html=1;align=center;verticalAlign=middle;whiteSpace=wrap;rounded=0;" parent="1" vertex="1">
          <mxGeometry x="340" y="1260" width="120" height="60" as="geometry" />
        </mxCell>
        <mxCell id="jlffG_SeRJ56lXRqPt9A-62" value="" style="endArrow=none;dashed=1;html=1;rounded=0;" parent="1" edge="1">
          <mxGeometry width="50" height="50" relative="1" as="geometry">
            <mxPoint x="380" y="1760" as="sourcePoint" />
            <mxPoint x="420" y="1760" as="targetPoint" />
          </mxGeometry>
        </mxCell>
        <mxCell id="jlffG_SeRJ56lXRqPt9A-63" value="" style="endArrow=classic;html=1;rounded=0;" parent="1" edge="1">
          <mxGeometry width="50" height="50" relative="1" as="geometry">
            <mxPoint x="400" y="1340" as="sourcePoint" />
            <mxPoint x="400" y="1390" as="targetPoint" />
          </mxGeometry>
        </mxCell>
        <mxCell id="jlffG_SeRJ56lXRqPt9A-64" value="" style="rounded=0;whiteSpace=wrap;html=1;" parent="1" vertex="1">
          <mxGeometry x="340" y="1400" width="120" height="60" as="geometry" />
        </mxCell>
        <mxCell id="jlffG_SeRJ56lXRqPt9A-65" value="&lt;div style=&quot;font-size: 20px;&quot;&gt;6&lt;br&gt;&lt;/div&gt;" style="text;html=1;align=center;verticalAlign=middle;whiteSpace=wrap;rounded=0;" parent="1" vertex="1">
          <mxGeometry x="340" y="1400" width="120" height="60" as="geometry" />
        </mxCell>
        <mxCell id="jlffG_SeRJ56lXRqPt9A-66" value="" style="endArrow=classic;html=1;rounded=0;" parent="1" edge="1">
          <mxGeometry width="50" height="50" relative="1" as="geometry">
            <mxPoint x="400" y="1480" as="sourcePoint" />
            <mxPoint x="400" y="1560" as="targetPoint" />
          </mxGeometry>
        </mxCell>
        <mxCell id="jlffG_SeRJ56lXRqPt9A-67" value="" style="rounded=0;whiteSpace=wrap;html=1;" parent="1" vertex="1">
          <mxGeometry x="340" y="1580" width="120" height="60" as="geometry" />
        </mxCell>
        <mxCell id="jlffG_SeRJ56lXRqPt9A-68" value="&lt;font style=&quot;font-size: 20px;&quot;&gt;8&lt;/font&gt;" style="text;html=1;align=center;verticalAlign=middle;whiteSpace=wrap;rounded=0;" parent="1" vertex="1">
          <mxGeometry x="340" y="1580" width="120" height="60" as="geometry" />
        </mxCell>
        <mxCell id="jlffG_SeRJ56lXRqPt9A-69" value="" style="shape=flexArrow;endArrow=classic;html=1;rounded=0;" parent="1" edge="1">
          <mxGeometry width="50" height="50" relative="1" as="geometry">
            <mxPoint x="360" y="750" as="sourcePoint" />
            <mxPoint x="480" y="750" as="targetPoint" />
          </mxGeometry>
        </mxCell>
        <mxCell id="jlffG_SeRJ56lXRqPt9A-70" value="" style="shape=flexArrow;endArrow=classic;html=1;rounded=0;" parent="1" edge="1">
          <mxGeometry width="50" height="50" relative="1" as="geometry">
            <mxPoint x="370" y="1049.5" as="sourcePoint" />
            <mxPoint x="490" y="1049.5" as="targetPoint" />
          </mxGeometry>
        </mxCell>
      </root>
    </mxGraphModel>
  </diagram>
  <diagram id="vORlxt5khfvNP_ROzqpB" name="Page-2">
    <mxGraphModel dx="1434" dy="1850" grid="1" gridSize="10" guides="1" tooltips="1" connect="1" arrows="1" fold="1" page="1" pageScale="1" pageWidth="850" pageHeight="1100" math="0" shadow="0">
      <root>
        <mxCell id="0" />
        <mxCell id="1" parent="0" />
        <mxCell id="RaEXjS0RX74ke4bAHOjM-1" value="" style="endArrow=classic;html=1;rounded=0;" edge="1" parent="1">
          <mxGeometry width="50" height="50" relative="1" as="geometry">
            <mxPoint x="100" y="-570" as="sourcePoint" />
            <mxPoint x="100" y="-490" as="targetPoint" />
          </mxGeometry>
        </mxCell>
        <mxCell id="RaEXjS0RX74ke4bAHOjM-2" value="" style="endArrow=none;html=1;rounded=0;" edge="1" parent="1">
          <mxGeometry width="50" height="50" relative="1" as="geometry">
            <mxPoint x="60" y="-480" as="sourcePoint" />
            <mxPoint x="140" y="-480" as="targetPoint" />
          </mxGeometry>
        </mxCell>
        <mxCell id="RaEXjS0RX74ke4bAHOjM-3" value="" style="endArrow=none;html=1;rounded=0;" edge="1" parent="1">
          <mxGeometry width="50" height="50" relative="1" as="geometry">
            <mxPoint x="70" y="-470" as="sourcePoint" />
            <mxPoint x="130" y="-470" as="targetPoint" />
          </mxGeometry>
        </mxCell>
        <mxCell id="RaEXjS0RX74ke4bAHOjM-4" value="" style="rounded=0;whiteSpace=wrap;html=1;" vertex="1" parent="1">
          <mxGeometry x="40" y="-960" width="120" height="60" as="geometry" />
        </mxCell>
        <mxCell id="RaEXjS0RX74ke4bAHOjM-5" value="&lt;div style=&quot;font-size: 13px;&quot;&gt;&lt;font style=&quot;font-size: 18px;&quot;&gt;TOPO&lt;/font&gt;&lt;/div&gt;" style="text;html=1;align=center;verticalAlign=middle;whiteSpace=wrap;rounded=0;" vertex="1" parent="1">
          <mxGeometry x="40" y="-960" width="120" height="60" as="geometry" />
        </mxCell>
        <mxCell id="RaEXjS0RX74ke4bAHOjM-6" value="" style="endArrow=none;dashed=1;html=1;rounded=0;" edge="1" parent="1">
          <mxGeometry width="50" height="50" relative="1" as="geometry">
            <mxPoint x="80" y="-460" as="sourcePoint" />
            <mxPoint x="120" y="-460" as="targetPoint" />
          </mxGeometry>
        </mxCell>
        <mxCell id="RaEXjS0RX74ke4bAHOjM-7" value="" style="endArrow=classic;html=1;rounded=0;" edge="1" parent="1">
          <mxGeometry width="50" height="50" relative="1" as="geometry">
            <mxPoint x="100" y="-880" as="sourcePoint" />
            <mxPoint x="100" y="-830" as="targetPoint" />
          </mxGeometry>
        </mxCell>
        <mxCell id="RaEXjS0RX74ke4bAHOjM-8" value="" style="rounded=0;whiteSpace=wrap;html=1;" vertex="1" parent="1">
          <mxGeometry x="40" y="-820" width="120" height="60" as="geometry" />
        </mxCell>
        <mxCell id="RaEXjS0RX74ke4bAHOjM-9" value="&lt;div style=&quot;font-size: 20px;&quot;&gt;6&lt;br&gt;&lt;/div&gt;" style="text;html=1;align=center;verticalAlign=middle;whiteSpace=wrap;rounded=0;" vertex="1" parent="1">
          <mxGeometry x="40" y="-820" width="120" height="60" as="geometry" />
        </mxCell>
        <mxCell id="RaEXjS0RX74ke4bAHOjM-10" value="" style="endArrow=classic;html=1;rounded=0;" edge="1" parent="1">
          <mxGeometry width="50" height="50" relative="1" as="geometry">
            <mxPoint x="100" y="-740" as="sourcePoint" />
            <mxPoint x="100" y="-660" as="targetPoint" />
          </mxGeometry>
        </mxCell>
        <mxCell id="RaEXjS0RX74ke4bAHOjM-11" value="" style="rounded=0;whiteSpace=wrap;html=1;" vertex="1" parent="1">
          <mxGeometry x="40" y="-640" width="120" height="60" as="geometry" />
        </mxCell>
        <mxCell id="RaEXjS0RX74ke4bAHOjM-12" value="&lt;font style=&quot;font-size: 20px;&quot;&gt;8&lt;/font&gt;" style="text;html=1;align=center;verticalAlign=middle;whiteSpace=wrap;rounded=0;" vertex="1" parent="1">
          <mxGeometry x="40" y="-640" width="120" height="60" as="geometry" />
        </mxCell>
        <mxCell id="RaEXjS0RX74ke4bAHOjM-13" value="" style="rounded=0;whiteSpace=wrap;html=1;" vertex="1" parent="1">
          <mxGeometry x="40" y="-1080" width="120" height="60" as="geometry" />
        </mxCell>
        <mxCell id="RaEXjS0RX74ke4bAHOjM-14" value="&lt;font style=&quot;font-size: 18px;&quot;&gt;Etapa 2&lt;/font&gt;" style="text;html=1;align=center;verticalAlign=middle;whiteSpace=wrap;rounded=0;" vertex="1" parent="1">
          <mxGeometry x="40" y="-1080" width="120" height="60" as="geometry" />
        </mxCell>
        <mxCell id="RaEXjS0RX74ke4bAHOjM-15" value="" style="rounded=0;whiteSpace=wrap;html=1;" vertex="1" parent="1">
          <mxGeometry x="240" y="-910" width="120" height="60" as="geometry" />
        </mxCell>
        <mxCell id="RaEXjS0RX74ke4bAHOjM-16" value="&lt;font style=&quot;font-size: 20px;&quot;&gt;Auxiliar&lt;/font&gt;" style="text;html=1;align=center;verticalAlign=middle;whiteSpace=wrap;rounded=0;" vertex="1" parent="1">
          <mxGeometry x="240" y="-910" width="120" height="60" as="geometry" />
        </mxCell>
        <mxCell id="RaEXjS0RX74ke4bAHOjM-17" value="" style="endArrow=classic;html=1;rounded=0;" edge="1" parent="1">
          <mxGeometry width="50" height="50" relative="1" as="geometry">
            <mxPoint x="290" y="-840" as="sourcePoint" />
            <mxPoint x="200" y="-790" as="targetPoint" />
          </mxGeometry>
        </mxCell>
        <mxCell id="RaEXjS0RX74ke4bAHOjM-18" value="" style="shape=flexArrow;endArrow=classic;html=1;rounded=0;" edge="1" parent="1">
          <mxGeometry width="50" height="50" relative="1" as="geometry">
            <mxPoint x="320" y="-720" as="sourcePoint" />
            <mxPoint x="430" y="-720" as="targetPoint" />
          </mxGeometry>
        </mxCell>
        <mxCell id="RaEXjS0RX74ke4bAHOjM-19" value="" style="endArrow=classic;html=1;rounded=0;" edge="1" parent="1">
          <mxGeometry width="50" height="50" relative="1" as="geometry">
            <mxPoint x="559.5" y="-690" as="sourcePoint" />
            <mxPoint x="559.5" y="-610" as="targetPoint" />
          </mxGeometry>
        </mxCell>
        <mxCell id="RaEXjS0RX74ke4bAHOjM-20" value="" style="endArrow=none;html=1;rounded=0;" edge="1" parent="1">
          <mxGeometry width="50" height="50" relative="1" as="geometry">
            <mxPoint x="520" y="-590" as="sourcePoint" />
            <mxPoint x="600" y="-590" as="targetPoint" />
          </mxGeometry>
        </mxCell>
        <mxCell id="RaEXjS0RX74ke4bAHOjM-21" value="" style="endArrow=none;html=1;rounded=0;" edge="1" parent="1">
          <mxGeometry width="50" height="50" relative="1" as="geometry">
            <mxPoint x="530" y="-580" as="sourcePoint" />
            <mxPoint x="590" y="-580" as="targetPoint" />
          </mxGeometry>
        </mxCell>
        <mxCell id="RaEXjS0RX74ke4bAHOjM-22" value="" style="rounded=0;whiteSpace=wrap;html=1;" vertex="1" parent="1">
          <mxGeometry x="500" y="-920" width="120" height="60" as="geometry" />
        </mxCell>
        <mxCell id="RaEXjS0RX74ke4bAHOjM-23" value="&lt;div style=&quot;font-size: 13px;&quot;&gt;&lt;font style=&quot;font-size: 18px;&quot;&gt;TOPO&lt;/font&gt;&lt;/div&gt;" style="text;html=1;align=center;verticalAlign=middle;whiteSpace=wrap;rounded=0;" vertex="1" parent="1">
          <mxGeometry x="500" y="-920" width="120" height="60" as="geometry" />
        </mxCell>
        <mxCell id="RaEXjS0RX74ke4bAHOjM-24" value="" style="endArrow=none;dashed=1;html=1;rounded=0;" edge="1" parent="1">
          <mxGeometry width="50" height="50" relative="1" as="geometry">
            <mxPoint x="540" y="-570" as="sourcePoint" />
            <mxPoint x="580" y="-570" as="targetPoint" />
          </mxGeometry>
        </mxCell>
        <mxCell id="RaEXjS0RX74ke4bAHOjM-26" value="" style="rounded=0;whiteSpace=wrap;html=1;" vertex="1" parent="1">
          <mxGeometry x="690" y="-790" width="120" height="60" as="geometry" />
        </mxCell>
        <mxCell id="RaEXjS0RX74ke4bAHOjM-27" value="&lt;div style=&quot;font-size: 20px;&quot;&gt;6&lt;br&gt;&lt;/div&gt;" style="text;html=1;align=center;verticalAlign=middle;whiteSpace=wrap;rounded=0;" vertex="1" parent="1">
          <mxGeometry x="690" y="-790" width="120" height="60" as="geometry" />
        </mxCell>
        <mxCell id="RaEXjS0RX74ke4bAHOjM-28" value="" style="endArrow=classic;html=1;rounded=0;" edge="1" parent="1">
          <mxGeometry width="50" height="50" relative="1" as="geometry">
            <mxPoint x="559.5" y="-850" as="sourcePoint" />
            <mxPoint x="559.5" y="-770" as="targetPoint" />
          </mxGeometry>
        </mxCell>
        <mxCell id="RaEXjS0RX74ke4bAHOjM-29" value="" style="rounded=0;whiteSpace=wrap;html=1;" vertex="1" parent="1">
          <mxGeometry x="500" y="-760" width="120" height="60" as="geometry" />
        </mxCell>
        <mxCell id="RaEXjS0RX74ke4bAHOjM-30" value="&lt;font style=&quot;font-size: 20px;&quot;&gt;8&lt;/font&gt;" style="text;html=1;align=center;verticalAlign=middle;whiteSpace=wrap;rounded=0;" vertex="1" parent="1">
          <mxGeometry x="500" y="-760" width="120" height="60" as="geometry" />
        </mxCell>
        <mxCell id="RaEXjS0RX74ke4bAHOjM-31" value="" style="rounded=0;whiteSpace=wrap;html=1;" vertex="1" parent="1">
          <mxGeometry x="700" y="-920" width="120" height="60" as="geometry" />
        </mxCell>
        <mxCell id="RaEXjS0RX74ke4bAHOjM-32" value="&lt;font style=&quot;font-size: 20px;&quot;&gt;Auxiliar&lt;/font&gt;" style="text;html=1;align=center;verticalAlign=middle;whiteSpace=wrap;rounded=0;" vertex="1" parent="1">
          <mxGeometry x="700" y="-920" width="120" height="60" as="geometry" />
        </mxCell>
        <mxCell id="RaEXjS0RX74ke4bAHOjM-33" value="" style="endArrow=classic;html=1;rounded=0;" edge="1" parent="1">
          <mxGeometry width="50" height="50" relative="1" as="geometry">
            <mxPoint x="750" y="-850" as="sourcePoint" />
            <mxPoint x="750" y="-800" as="targetPoint" />
          </mxGeometry>
        </mxCell>
        <mxCell id="RaEXjS0RX74ke4bAHOjM-34" value="" style="endArrow=classic;html=1;rounded=0;" edge="1" parent="1">
          <mxGeometry width="50" height="50" relative="1" as="geometry">
            <mxPoint x="99.5" y="-170" as="sourcePoint" />
            <mxPoint x="99.5" y="-90" as="targetPoint" />
          </mxGeometry>
        </mxCell>
        <mxCell id="RaEXjS0RX74ke4bAHOjM-35" value="" style="endArrow=none;html=1;rounded=0;" edge="1" parent="1">
          <mxGeometry width="50" height="50" relative="1" as="geometry">
            <mxPoint x="60" y="-70" as="sourcePoint" />
            <mxPoint x="140" y="-70" as="targetPoint" />
          </mxGeometry>
        </mxCell>
        <mxCell id="RaEXjS0RX74ke4bAHOjM-36" value="" style="endArrow=none;html=1;rounded=0;" edge="1" parent="1">
          <mxGeometry width="50" height="50" relative="1" as="geometry">
            <mxPoint x="70" y="-60" as="sourcePoint" />
            <mxPoint x="130" y="-60" as="targetPoint" />
          </mxGeometry>
        </mxCell>
        <mxCell id="RaEXjS0RX74ke4bAHOjM-37" value="" style="rounded=0;whiteSpace=wrap;html=1;" vertex="1" parent="1">
          <mxGeometry x="40" y="-400" width="120" height="60" as="geometry" />
        </mxCell>
        <mxCell id="RaEXjS0RX74ke4bAHOjM-38" value="&lt;div style=&quot;font-size: 13px;&quot;&gt;&lt;font style=&quot;font-size: 18px;&quot;&gt;TOPO&lt;/font&gt;&lt;/div&gt;" style="text;html=1;align=center;verticalAlign=middle;whiteSpace=wrap;rounded=0;" vertex="1" parent="1">
          <mxGeometry x="40" y="-400" width="120" height="60" as="geometry" />
        </mxCell>
        <mxCell id="RaEXjS0RX74ke4bAHOjM-39" value="" style="endArrow=none;dashed=1;html=1;rounded=0;" edge="1" parent="1">
          <mxGeometry width="50" height="50" relative="1" as="geometry">
            <mxPoint x="80" y="-50" as="sourcePoint" />
            <mxPoint x="120" y="-50" as="targetPoint" />
          </mxGeometry>
        </mxCell>
        <mxCell id="RaEXjS0RX74ke4bAHOjM-40" value="" style="endArrow=classic;html=1;rounded=0;" edge="1" parent="1">
          <mxGeometry width="50" height="50" relative="1" as="geometry">
            <mxPoint x="99.5" y="-330" as="sourcePoint" />
            <mxPoint x="99.5" y="-250" as="targetPoint" />
          </mxGeometry>
        </mxCell>
        <mxCell id="RaEXjS0RX74ke4bAHOjM-41" value="" style="rounded=0;whiteSpace=wrap;html=1;" vertex="1" parent="1">
          <mxGeometry x="40" y="-240" width="120" height="60" as="geometry" />
        </mxCell>
        <mxCell id="RaEXjS0RX74ke4bAHOjM-42" value="&lt;font style=&quot;font-size: 20px;&quot;&gt;8&lt;/font&gt;" style="text;html=1;align=center;verticalAlign=middle;whiteSpace=wrap;rounded=0;" vertex="1" parent="1">
          <mxGeometry x="40" y="-240" width="120" height="60" as="geometry" />
        </mxCell>
        <mxCell id="RaEXjS0RX74ke4bAHOjM-43" value="" style="rounded=0;whiteSpace=wrap;html=1;" vertex="1" parent="1">
          <mxGeometry x="200" y="-270" width="120" height="60" as="geometry" />
        </mxCell>
        <mxCell id="RaEXjS0RX74ke4bAHOjM-44" value="&lt;div style=&quot;font-size: 20px;&quot;&gt;6&lt;br&gt;&lt;/div&gt;" style="text;html=1;align=center;verticalAlign=middle;whiteSpace=wrap;rounded=0;" vertex="1" parent="1">
          <mxGeometry x="200" y="-270" width="120" height="60" as="geometry" />
        </mxCell>
        <mxCell id="RaEXjS0RX74ke4bAHOjM-45" value="" style="rounded=0;whiteSpace=wrap;html=1;" vertex="1" parent="1">
          <mxGeometry x="210" y="-400" width="120" height="60" as="geometry" />
        </mxCell>
        <mxCell id="RaEXjS0RX74ke4bAHOjM-46" value="&lt;font style=&quot;font-size: 20px;&quot;&gt;Auxiliar&lt;/font&gt;" style="text;html=1;align=center;verticalAlign=middle;whiteSpace=wrap;rounded=0;" vertex="1" parent="1">
          <mxGeometry x="210" y="-400" width="120" height="60" as="geometry" />
        </mxCell>
        <mxCell id="RaEXjS0RX74ke4bAHOjM-47" value="" style="endArrow=classic;html=1;rounded=0;" edge="1" parent="1">
          <mxGeometry width="50" height="50" relative="1" as="geometry">
            <mxPoint x="260" y="-330" as="sourcePoint" />
            <mxPoint x="260" y="-280" as="targetPoint" />
          </mxGeometry>
        </mxCell>
        <mxCell id="RaEXjS0RX74ke4bAHOjM-48" value="" style="shape=link;html=1;rounded=0;" edge="1" parent="1">
          <mxGeometry width="100" relative="1" as="geometry">
            <mxPoint x="180" y="-420" as="sourcePoint" />
            <mxPoint x="340" y="-170" as="targetPoint" />
          </mxGeometry>
        </mxCell>
        <mxCell id="RaEXjS0RX74ke4bAHOjM-49" value="" style="shape=link;html=1;rounded=0;" edge="1" parent="1">
          <mxGeometry width="100" relative="1" as="geometry">
            <mxPoint x="360" y="-420" as="sourcePoint" />
            <mxPoint x="180" y="-180" as="targetPoint" />
          </mxGeometry>
        </mxCell>
        <mxCell id="RaEXjS0RX74ke4bAHOjM-50" value="" style="shape=flexArrow;endArrow=classic;html=1;rounded=0;" edge="1" parent="1">
          <mxGeometry width="50" height="50" relative="1" as="geometry">
            <mxPoint x="360" y="-200" as="sourcePoint" />
            <mxPoint x="470" y="-200" as="targetPoint" />
          </mxGeometry>
        </mxCell>
        <mxCell id="RaEXjS0RX74ke4bAHOjM-51" value="" style="endArrow=classic;html=1;rounded=0;" edge="1" parent="1">
          <mxGeometry width="50" height="50" relative="1" as="geometry">
            <mxPoint x="619.5" y="-170" as="sourcePoint" />
            <mxPoint x="619.5" y="-90" as="targetPoint" />
          </mxGeometry>
        </mxCell>
        <mxCell id="RaEXjS0RX74ke4bAHOjM-52" value="" style="endArrow=none;html=1;rounded=0;" edge="1" parent="1">
          <mxGeometry width="50" height="50" relative="1" as="geometry">
            <mxPoint x="580" y="-70" as="sourcePoint" />
            <mxPoint x="660" y="-70" as="targetPoint" />
          </mxGeometry>
        </mxCell>
        <mxCell id="RaEXjS0RX74ke4bAHOjM-53" value="" style="endArrow=none;html=1;rounded=0;" edge="1" parent="1">
          <mxGeometry width="50" height="50" relative="1" as="geometry">
            <mxPoint x="590" y="-60" as="sourcePoint" />
            <mxPoint x="650" y="-60" as="targetPoint" />
          </mxGeometry>
        </mxCell>
        <mxCell id="RaEXjS0RX74ke4bAHOjM-54" value="" style="rounded=0;whiteSpace=wrap;html=1;" vertex="1" parent="1">
          <mxGeometry x="560" y="-400" width="120" height="60" as="geometry" />
        </mxCell>
        <mxCell id="RaEXjS0RX74ke4bAHOjM-55" value="&lt;div style=&quot;font-size: 13px;&quot;&gt;&lt;font style=&quot;font-size: 18px;&quot;&gt;TOPO&lt;/font&gt;&lt;/div&gt;" style="text;html=1;align=center;verticalAlign=middle;whiteSpace=wrap;rounded=0;" vertex="1" parent="1">
          <mxGeometry x="560" y="-400" width="120" height="60" as="geometry" />
        </mxCell>
        <mxCell id="RaEXjS0RX74ke4bAHOjM-56" value="" style="endArrow=none;dashed=1;html=1;rounded=0;" edge="1" parent="1">
          <mxGeometry width="50" height="50" relative="1" as="geometry">
            <mxPoint x="600" y="-50" as="sourcePoint" />
            <mxPoint x="640" y="-50" as="targetPoint" />
          </mxGeometry>
        </mxCell>
        <mxCell id="RaEXjS0RX74ke4bAHOjM-57" value="" style="endArrow=classic;html=1;rounded=0;" edge="1" parent="1">
          <mxGeometry width="50" height="50" relative="1" as="geometry">
            <mxPoint x="619.5" y="-330" as="sourcePoint" />
            <mxPoint x="619.5" y="-250" as="targetPoint" />
          </mxGeometry>
        </mxCell>
        <mxCell id="RaEXjS0RX74ke4bAHOjM-58" value="" style="rounded=0;whiteSpace=wrap;html=1;" vertex="1" parent="1">
          <mxGeometry x="560" y="-240" width="120" height="60" as="geometry" />
        </mxCell>
        <mxCell id="RaEXjS0RX74ke4bAHOjM-59" value="&lt;font style=&quot;font-size: 20px;&quot;&gt;8&lt;/font&gt;" style="text;html=1;align=center;verticalAlign=middle;whiteSpace=wrap;rounded=0;" vertex="1" parent="1">
          <mxGeometry x="560" y="-240" width="120" height="60" as="geometry" />
        </mxCell>
      </root>
    </mxGraphModel>
  </diagram>
</mxfile>
